<?xml version="1.0" standalone="no"?>
<!DOCTYPE svg PUBLIC "-//W3C//DTD SVG 20010904//EN"
 "http://www.w3.org/TR/2001/REC-SVG-20010904/DTD/svg10.dtd">
<svg version="1.0" xmlns="http://www.w3.org/2000/svg"
 width="512.000000pt" height="512.000000pt" viewBox="0 0 512.000000 512.000000"
 preserveAspectRatio="xMidYMid meet">
<metadata>
Created by potrace 1.14, written by Peter Selinger 2001-2017
</metadata>
<g transform="translate(0.000000,512.000000) scale(0.100000,-0.100000)"
fill="#000000" stroke="none">
<path d="M950 5106 c-162 -45 -293 -179 -329 -337 -15 -65 -15 -4340 0 -4411
35 -167 163 -298 334 -344 74 -20 3136 -20 3210 0 155 41 266 142 320 292 l25
68 0 1713 c0 1685 0 1714 -20 1751 -30 58 -1237 1257 -1279 1271 -52 17 -2199
14 -2261 -3z m2061 -691 c1 -223 2 -408 3 -412 1 -5 6 -24 10 -43 10 -42 41
-114 58 -137 74 -96 183 -171 274 -189 22 -5 42 -9 47 -10 4 -1 187 -2 407 -3
l400 -1 0 -1589 c0 -874 -3 -1602 -6 -1620 -9 -41 -55 -87 -101 -101 -27 -8
-478 -10 -1568 -8 -1497 3 -1531 3 -1556 22 -14 11 -34 31 -45 45 -19 26 -19
64 -22 2179 -2 2142 -2 2153 18 2192 12 24 35 47 58 59 36 20 61 20 1030 21
l992 0 1 -405z m645 -155 l336 -335 -277 -3 c-255 -2 -280 -1 -320 17 -32 14
-49 30 -64 60 -20 38 -21 57 -21 322 0 155 2 280 5 278 2 -2 156 -155 341
-339z"/>
<path d="M1298 2682 c-49 -23 -80 -64 -85 -116 -13 -115 108 -200 213 -150 41
20 84 87 84 133 0 51 -35 108 -80 131 -48 24 -83 25 -132 2z"/>
<path d="M1891 2681 c-42 -22 -81 -85 -81 -130 0 -19 11 -53 25 -77 46 -78 5
-75 895 -72 l785 3 30 23 c39 30 64 78 65 121 0 48 -38 110 -82 132 -36 18
-71 19 -820 19 -735 -1 -785 -2 -817 -19z"/>
<path d="M1293 2083 c-108 -61 -108 -215 0 -264 23 -10 53 -19 67 -19 14 0 44
9 67 19 47 22 83 79 83 132 0 38 -35 104 -67 125 -38 25 -113 28 -150 7z"/>
<path d="M1891 2081 c-41 -22 -81 -85 -81 -129 0 -33 22 -85 46 -109 42 -43
45 -43 859 -43 763 0 776 0 816 21 45 22 79 81 78 134 0 39 -26 88 -64 117
l-30 23 -795 2 c-751 2 -797 1 -829 -16z"/>
<path d="M1313 1493 c-28 -5 -81 -57 -94 -90 -22 -57 6 -144 56 -177 69 -45
169 -22 210 48 30 52 32 94 5 146 -32 62 -97 89 -177 73z"/>
<path d="M1891 1481 c-42 -22 -81 -85 -81 -130 0 -19 11 -53 25 -77 46 -78 5
-75 895 -72 l785 3 32 24 c34 25 63 84 63 127 0 50 -47 115 -98 135 -13 5
-368 9 -805 9 -734 -1 -784 -2 -816 -19z"/>
</g>
</svg>
